<?xml version="1.0" encoding="UTF-8" standalone="no"?>
<!DOCTYPE svg PUBLIC "-//W3C//DTD SVG 1.1//EN"
 "http://www.w3.org/Graphics/SVG/1.1/DTD/svg11.dtd">
<!-- Generated by graphviz version 2.43.0 (0)
 -->
<!-- Title: G Pages: 1 -->
<svg width="1400pt" height="682pt"
 viewBox="0.00 0.00 1400.20 682.32" xmlns="http://www.w3.org/2000/svg" xmlns:xlink="http://www.w3.org/1999/xlink">
<g id="graph0" class="graph" transform="scale(1 1) rotate(0) translate(21.6 660.72)">
<title>G</title>
<polygon fill="#111111" stroke="transparent" points="-21.6,21.6 -21.6,-660.72 1378.6,-660.72 1378.6,21.6 -21.6,21.6"/>
<!-- ads/ad&#45;detection.js -->
<g id="node1" class="node">
<title>ads/ad&#45;detection.js</title>
<path fill="none" stroke="#cfffac" d="M1021.83,-510.24C1021.83,-510.24 907.17,-510.24 907.17,-510.24 903.33,-510.24 899.5,-506.41 899.5,-502.57 899.5,-502.57 899.5,-494.91 899.5,-494.91 899.5,-491.07 903.33,-487.24 907.17,-487.24 907.17,-487.24 1021.83,-487.24 1021.83,-487.24 1025.67,-487.24 1029.5,-491.07 1029.5,-494.91 1029.5,-494.91 1029.5,-502.57 1029.5,-502.57 1029.5,-506.41 1025.67,-510.24 1021.83,-510.24"/>
<text text-anchor="middle" x="964.5" y="-495.04" font-family="Arial" font-size="14.00" fill="#cfffac">ads/ad&#45;detection.js</text>
</g>
<!-- ads/ad&#45;external&#45;urls.js -->
<g id="node2" class="node">
<title>ads/ad&#45;external&#45;urls.js</title>
<path fill="none" stroke="#cfffac" d="M156.83,-180.24C156.83,-180.24 23.17,-180.24 23.17,-180.24 19.33,-180.24 15.5,-176.41 15.5,-172.57 15.5,-172.57 15.5,-164.91 15.5,-164.91 15.5,-161.07 19.33,-157.24 23.17,-157.24 23.17,-157.24 156.83,-157.24 156.83,-157.24 160.67,-157.24 164.5,-161.07 164.5,-164.91 164.5,-164.91 164.5,-172.57 164.5,-172.57 164.5,-176.41 160.67,-180.24 156.83,-180.24"/>
<text text-anchor="middle" x="90" y="-165.04" font-family="Arial" font-size="14.00" fill="#cfffac">ads/ad&#45;external&#45;urls.js</text>
</g>
<!-- ads/ad&#45;scraper.js -->
<g id="node3" class="node">
<title>ads/ad&#45;scraper.js</title>
<path fill="none" stroke="#c6c5fe" d="M438.33,-352.24C438.33,-352.24 333.67,-352.24 333.67,-352.24 329.83,-352.24 326,-348.41 326,-344.57 326,-344.57 326,-336.91 326,-336.91 326,-333.07 329.83,-329.24 333.67,-329.24 333.67,-329.24 438.33,-329.24 438.33,-329.24 442.17,-329.24 446,-333.07 446,-336.91 446,-336.91 446,-344.57 446,-344.57 446,-348.41 442.17,-352.24 438.33,-352.24"/>
<text text-anchor="middle" x="386" y="-337.04" font-family="Arial" font-size="14.00" fill="#c6c5fe">ads/ad&#45;scraper.js</text>
</g>
<!-- ads/ad&#45;scraper.js&#45;&gt;ads/ad&#45;detection.js -->
<g id="edge1" class="edge">
<title>ads/ad&#45;scraper.js&#45;&gt;ads/ad&#45;detection.js</title>
<path fill="none" stroke="#757575" d="M391.19,-352.32C401.64,-379.31 431.73,-446.2 482,-473.74 549.96,-510.98 771.51,-507.43 888.91,-502.61"/>
<polygon fill="#757575" stroke="#757575" points="889.41,-506.09 899.25,-502.17 889.11,-499.1 889.41,-506.09"/>
</g>
<!-- ads/chumbox&#45;handler.js -->
<g id="node4" class="node">
<title>ads/chumbox&#45;handler.js</title>
<path fill="none" stroke="#cfffac" d="M635.33,-352.24C635.33,-352.24 489.67,-352.24 489.67,-352.24 485.83,-352.24 482,-348.41 482,-344.57 482,-344.57 482,-336.91 482,-336.91 482,-333.07 485.83,-329.24 489.67,-329.24 489.67,-329.24 635.33,-329.24 635.33,-329.24 639.17,-329.24 643,-333.07 643,-336.91 643,-336.91 643,-344.57 643,-344.57 643,-348.41 639.17,-352.24 635.33,-352.24"/>
<text text-anchor="middle" x="562.5" y="-337.04" font-family="Arial" font-size="14.00" fill="#cfffac">ads/chumbox&#45;handler.js</text>
</g>
<!-- ads/ad&#45;scraper.js&#45;&gt;ads/chumbox&#45;handler.js -->
<g id="edge2" class="edge">
<title>ads/ad&#45;scraper.js&#45;&gt;ads/chumbox&#45;handler.js</title>
<path fill="none" stroke="#757575" d="M446.08,-340.74C454.32,-340.74 462.94,-340.74 471.6,-340.74"/>
<polygon fill="#757575" stroke="#757575" points="471.75,-344.24 481.75,-340.74 471.75,-337.24 471.75,-344.24"/>
</g>
<!-- ads/click.js -->
<g id="node5" class="node">
<title>ads/click.js</title>
<path fill="none" stroke="#c6c5fe" d="M595.83,-196.24C595.83,-196.24 529.17,-196.24 529.17,-196.24 525.33,-196.24 521.5,-192.41 521.5,-188.57 521.5,-188.57 521.5,-180.91 521.5,-180.91 521.5,-177.07 525.33,-173.24 529.17,-173.24 529.17,-173.24 595.83,-173.24 595.83,-173.24 599.67,-173.24 603.5,-177.07 603.5,-180.91 603.5,-180.91 603.5,-188.57 603.5,-188.57 603.5,-192.41 599.67,-196.24 595.83,-196.24"/>
<text text-anchor="middle" x="562.5" y="-181.04" font-family="Arial" font-size="14.00" fill="#c6c5fe">ads/click.js</text>
</g>
<!-- ads/ad&#45;scraper.js&#45;&gt;ads/click.js -->
<g id="edge3" class="edge">
<title>ads/ad&#45;scraper.js&#45;&gt;ads/click.js</title>
<path fill="none" stroke="#757575" d="M392.34,-329.14C404.55,-303.85 436.98,-243.42 482,-210.74 490.73,-204.41 501.08,-199.56 511.38,-195.87"/>
<polygon fill="#757575" stroke="#757575" points="512.77,-199.1 521.19,-192.67 510.6,-192.44 512.77,-199.1"/>
</g>
<!-- ads/iframe&#45;scraper.js -->
<g id="node6" class="node">
<title>ads/iframe&#45;scraper.js</title>
<path fill="none" stroke="#cfffac" d="M626.33,-393.24C626.33,-393.24 498.67,-393.24 498.67,-393.24 494.83,-393.24 491,-389.41 491,-385.57 491,-385.57 491,-377.91 491,-377.91 491,-374.07 494.83,-370.24 498.67,-370.24 498.67,-370.24 626.33,-370.24 626.33,-370.24 630.17,-370.24 634,-374.07 634,-377.91 634,-377.91 634,-385.57 634,-385.57 634,-389.41 630.17,-393.24 626.33,-393.24"/>
<text text-anchor="middle" x="562.5" y="-378.04" font-family="Arial" font-size="14.00" fill="#cfffac">ads/iframe&#45;scraper.js</text>
</g>
<!-- ads/ad&#45;scraper.js&#45;&gt;ads/iframe&#45;scraper.js -->
<g id="edge4" class="edge">
<title>ads/ad&#45;scraper.js&#45;&gt;ads/iframe&#45;scraper.js</title>
<path fill="none" stroke="#757575" d="M436.07,-352.27C456.79,-357.14 481.09,-362.85 502.75,-367.94"/>
<polygon fill="#757575" stroke="#757575" points="501.96,-371.35 512.49,-370.23 503.56,-364.53 501.96,-371.35"/>
</g>
<!-- util/db.js -->
<g id="node7" class="node">
<title>util/db.js</title>
<path fill="none" stroke="#c6c5fe" d="M1201.33,-274.24C1201.33,-274.24 1150.67,-274.24 1150.67,-274.24 1146.83,-274.24 1143,-270.41 1143,-266.57 1143,-266.57 1143,-258.91 1143,-258.91 1143,-255.07 1146.83,-251.24 1150.67,-251.24 1150.67,-251.24 1201.33,-251.24 1201.33,-251.24 1205.17,-251.24 1209,-255.07 1209,-258.91 1209,-258.91 1209,-266.57 1209,-266.57 1209,-270.41 1205.17,-274.24 1201.33,-274.24"/>
<text text-anchor="middle" x="1176" y="-259.04" font-family="Arial" font-size="14.00" fill="#c6c5fe">util/db.js</text>
</g>
<!-- ads/ad&#45;scraper.js&#45;&gt;util/db.js -->
<g id="edge5" class="edge">
<title>ads/ad&#45;scraper.js&#45;&gt;util/db.js</title>
<path fill="none" stroke="#757575" d="M415.85,-352.34C425.76,-356.86 436.69,-362.47 446,-368.74 464.01,-380.86 461.77,-393.87 482,-401.74 548.69,-427.68 571.62,-406.72 643,-401.74 831.48,-388.6 888.67,-413.15 1064,-342.74 1099.81,-328.36 1134.86,-300.02 1155.71,-281.23"/>
<polygon fill="#757575" stroke="#757575" points="1158.24,-283.65 1163.22,-274.3 1153.5,-278.5 1158.24,-283.65"/>
</g>
<!-- util/getCrawlOutputDirectory.js -->
<g id="node8" class="node">
<title>util/getCrawlOutputDirectory.js</title>
<path fill="none" stroke="#c6c5fe" d="M1056.33,-254.24C1056.33,-254.24 872.67,-254.24 872.67,-254.24 868.83,-254.24 865,-250.41 865,-246.57 865,-246.57 865,-238.91 865,-238.91 865,-235.07 868.83,-231.24 872.67,-231.24 872.67,-231.24 1056.33,-231.24 1056.33,-231.24 1060.17,-231.24 1064,-235.07 1064,-238.91 1064,-238.91 1064,-246.57 1064,-246.57 1064,-250.41 1060.17,-254.24 1056.33,-254.24"/>
<text text-anchor="middle" x="964.5" y="-239.04" font-family="Arial" font-size="14.00" fill="#c6c5fe">util/getCrawlOutputDirectory.js</text>
</g>
<!-- ads/ad&#45;scraper.js&#45;&gt;util/getCrawlOutputDirectory.js -->
<g id="edge6" class="edge">
<title>ads/ad&#45;scraper.js&#45;&gt;util/getCrawlOutputDirectory.js</title>
<path fill="none" stroke="#757575" d="M420.52,-329.13C438.56,-323.23 461.3,-316.36 482,-311.74 608.58,-283.53 756.56,-264.33 854.72,-253.49"/>
<polygon fill="#757575" stroke="#757575" points="855.39,-256.94 864.95,-252.37 854.63,-249.98 855.39,-256.94"/>
</g>
<!-- util/log.js -->
<g id="node9" class="node">
<title>util/log.js</title>
<path fill="none" stroke="#cfffac" d="M1349.33,-374.24C1349.33,-374.24 1295.67,-374.24 1295.67,-374.24 1291.83,-374.24 1288,-370.41 1288,-366.57 1288,-366.57 1288,-358.91 1288,-358.91 1288,-355.07 1291.83,-351.24 1295.67,-351.24 1295.67,-351.24 1349.33,-351.24 1349.33,-351.24 1353.17,-351.24 1357,-355.07 1357,-358.91 1357,-358.91 1357,-366.57 1357,-366.57 1357,-370.41 1353.17,-374.24 1349.33,-374.24"/>
<text text-anchor="middle" x="1322.5" y="-359.04" font-family="Arial" font-size="14.00" fill="#cfffac">util/log.js</text>
</g>
<!-- ads/ad&#45;scraper.js&#45;&gt;util/log.js -->
<g id="edge7" class="edge">
<title>ads/ad&#45;scraper.js&#45;&gt;util/log.js</title>
<path fill="none" stroke="#757575" d="M419.51,-352.37C428.7,-356.62 438.28,-362.07 446,-368.74 467.82,-387.61 456.57,-409.13 482,-422.74 545.09,-456.51 571.48,-424.85 643,-422.74 782.53,-418.62 1223.73,-387.72 1252,-382.74 1260.53,-381.24 1269.51,-379.09 1278.08,-376.76"/>
<polygon fill="#757575" stroke="#757575" points="1279.24,-380.07 1287.9,-373.96 1277.32,-373.34 1279.24,-380.07"/>
</g>
<!-- util/timeout.js -->
<g id="node10" class="node">
<title>util/timeout.js</title>
<path fill="none" stroke="#cfffac" d="M1004.83,-334.24C1004.83,-334.24 924.17,-334.24 924.17,-334.24 920.33,-334.24 916.5,-330.41 916.5,-326.57 916.5,-326.57 916.5,-318.91 916.5,-318.91 916.5,-315.07 920.33,-311.24 924.17,-311.24 924.17,-311.24 1004.83,-311.24 1004.83,-311.24 1008.67,-311.24 1012.5,-315.07 1012.5,-318.91 1012.5,-318.91 1012.5,-326.57 1012.5,-326.57 1012.5,-330.41 1008.67,-334.24 1004.83,-334.24"/>
<text text-anchor="middle" x="964.5" y="-319.04" font-family="Arial" font-size="14.00" fill="#cfffac">util/timeout.js</text>
</g>
<!-- ads/ad&#45;scraper.js&#45;&gt;util/timeout.js -->
<g id="edge8" class="edge">
<title>ads/ad&#45;scraper.js&#45;&gt;util/timeout.js</title>
<path fill="none" stroke="#757575" d="M429.71,-329.23C445.95,-325.4 464.7,-321.63 482,-319.74 562.5,-310.95 796.96,-317.18 906.21,-320.74"/>
<polygon fill="#757575" stroke="#757575" points="906.28,-324.24 916.39,-321.07 906.51,-317.24 906.28,-324.24"/>
</g>
<!-- ads/click.js&#45;&gt;util/db.js -->
<g id="edge10" class="edge">
<title>ads/click.js&#45;&gt;util/db.js</title>
<path fill="none" stroke="#757575" d="M603.88,-184.6C657.87,-185.92 755.3,-193.69 829,-229.74 848.5,-239.28 844.77,-254.87 865,-262.74 955.09,-297.78 1071.36,-283.65 1132.73,-272.1"/>
<polygon fill="#757575" stroke="#757575" points="1133.67,-275.48 1142.81,-270.13 1132.33,-268.61 1133.67,-275.48"/>
</g>
<!-- ads/click.js&#45;&gt;util/log.js -->
<g id="edge11" class="edge">
<title>ads/click.js&#45;&gt;util/log.js</title>
<path fill="none" stroke="#757575" d="M580.11,-173.06C601.71,-158.66 641.15,-134.96 679,-125.74 926.64,-65.45 1055.74,13.86 1252,-148.74 1310.94,-197.57 1320.37,-297.02 1321.55,-341"/>
<polygon fill="#757575" stroke="#757575" points="1318.05,-341.2 1321.7,-351.15 1325.05,-341.1 1318.05,-341.2"/>
</g>
<!-- ads/click.js&#45;&gt;util/timeout.js -->
<g id="edge12" class="edge">
<title>ads/click.js&#45;&gt;util/timeout.js</title>
<path fill="none" stroke="#757575" d="M591.86,-196.34C644.92,-217.79 763.06,-264.44 865,-296.74 878.3,-300.95 892.75,-305.04 906.38,-308.67"/>
<polygon fill="#757575" stroke="#757575" points="905.57,-312.08 916.13,-311.24 907.35,-305.31 905.57,-312.08"/>
</g>
<!-- pages/page&#45;scraper.js -->
<g id="node11" class="node">
<title>pages/page&#45;scraper.js</title>
<path fill="none" stroke="#c6c5fe" d="M821.33,-158.24C821.33,-158.24 686.67,-158.24 686.67,-158.24 682.83,-158.24 679,-154.41 679,-150.57 679,-150.57 679,-142.91 679,-142.91 679,-139.07 682.83,-135.24 686.67,-135.24 686.67,-135.24 821.33,-135.24 821.33,-135.24 825.17,-135.24 829,-139.07 829,-142.91 829,-142.91 829,-150.57 829,-150.57 829,-154.41 825.17,-158.24 821.33,-158.24"/>
<text text-anchor="middle" x="754" y="-143.04" font-family="Arial" font-size="14.00" fill="#c6c5fe">pages/page&#45;scraper.js</text>
</g>
<!-- ads/click.js&#45;&gt;pages/page&#45;scraper.js -->
<g id="edge9" class="edge">
<title>ads/click.js&#45;&gt;pages/page&#45;scraper.js</title>
<path fill="none" stroke="#757575" d="M603.69,-176.68C627.49,-171.91 658.26,-165.74 685.68,-160.24"/>
<polygon fill="#757575" stroke="#757575" points="686.5,-163.65 695.61,-158.25 685.12,-156.78 686.5,-163.65"/>
</g>
<!-- util/db.js&#45;&gt;util/log.js -->
<g id="edge32" class="edge">
<title>util/db.js&#45;&gt;util/log.js</title>
<path fill="none" stroke="#757575" d="M1193.86,-274.41C1219.09,-291.87 1266.85,-324.92 1296.26,-345.27"/>
<polygon fill="#757575" stroke="#757575" points="1294.53,-348.34 1304.75,-351.15 1298.52,-342.58 1294.53,-348.34"/>
</g>
<!-- util/getCrawlOutputDirectory.js&#45;&gt;util/db.js -->
<g id="edge33" class="edge">
<title>util/getCrawlOutputDirectory.js&#45;&gt;util/db.js</title>
<path fill="none" stroke="#757575" d="M1064.12,-252.16C1088.22,-254.46 1112.77,-256.8 1132.62,-258.69"/>
<polygon fill="#757575" stroke="#757575" points="1132.54,-262.2 1142.83,-259.67 1133.21,-255.24 1132.54,-262.2"/>
</g>
<!-- pages/page&#45;scraper.js&#45;&gt;util/db.js -->
<g id="edge27" class="edge">
<title>pages/page&#45;scraper.js&#45;&gt;util/db.js</title>
<path fill="none" stroke="#757575" d="M786.94,-158.35C808.73,-165.98 838.36,-175.8 865,-182.74 952.21,-205.47 977.23,-197.38 1064,-221.74 1089.21,-228.82 1116.84,-239.01 1138.22,-247.47"/>
<polygon fill="#757575" stroke="#757575" points="1137,-250.75 1147.58,-251.21 1139.6,-244.25 1137,-250.75"/>
</g>
<!-- pages/page&#45;scraper.js&#45;&gt;util/getCrawlOutputDirectory.js -->
<g id="edge28" class="edge">
<title>pages/page&#45;scraper.js&#45;&gt;util/getCrawlOutputDirectory.js</title>
<path fill="none" stroke="#757575" d="M800.35,-158.27C810.3,-161.97 820.41,-166.72 829,-172.74 849.69,-187.25 843.75,-203.07 865,-216.74 871.82,-221.13 879.36,-224.78 887.14,-227.81"/>
<polygon fill="#757575" stroke="#757575" points="886.12,-231.17 896.71,-231.22 888.47,-224.57 886.12,-231.17"/>
</g>
<!-- pages/page&#45;scraper.js&#45;&gt;util/log.js -->
<g id="edge29" class="edge">
<title>pages/page&#45;scraper.js&#45;&gt;util/log.js</title>
<path fill="none" stroke="#757575" d="M826.75,-135.24C890.15,-127.5 984.61,-121.94 1064,-141.74 1155.83,-164.64 1184,-175.92 1252,-241.74 1281.96,-270.75 1303.06,-315.46 1313.66,-341.64"/>
<polygon fill="#757575" stroke="#757575" points="1310.42,-342.96 1317.32,-351 1316.94,-340.41 1310.42,-342.96"/>
</g>
<!-- pages/page&#45;scraper.js&#45;&gt;util/timeout.js -->
<g id="edge30" class="edge">
<title>pages/page&#45;scraper.js&#45;&gt;util/timeout.js</title>
<path fill="none" stroke="#757575" d="M764.14,-158.24C781.97,-180.24 823.33,-229.08 865,-262.74 885.84,-279.58 911.81,-295.21 931.84,-306.29"/>
<polygon fill="#757575" stroke="#757575" points="930.42,-309.5 940.88,-311.2 933.76,-303.35 930.42,-309.5"/>
</g>
<!-- util/urlToPathSafeStr.js -->
<g id="node17" class="node">
<title>util/urlToPathSafeStr.js</title>
<path fill="none" stroke="#cfffac" d="M1033.33,-174.24C1033.33,-174.24 895.67,-174.24 895.67,-174.24 891.83,-174.24 888,-170.41 888,-166.57 888,-166.57 888,-158.91 888,-158.91 888,-155.07 891.83,-151.24 895.67,-151.24 895.67,-151.24 1033.33,-151.24 1033.33,-151.24 1037.17,-151.24 1041,-155.07 1041,-158.91 1041,-158.91 1041,-166.57 1041,-166.57 1041,-170.41 1037.17,-174.24 1033.33,-174.24"/>
<text text-anchor="middle" x="964.5" y="-159.04" font-family="Arial" font-size="14.00" fill="#cfffac">util/urlToPathSafeStr.js</text>
</g>
<!-- pages/page&#45;scraper.js&#45;&gt;util/urlToPathSafeStr.js -->
<g id="edge31" class="edge">
<title>pages/page&#45;scraper.js&#45;&gt;util/urlToPathSafeStr.js</title>
<path fill="none" stroke="#757575" d="M829.1,-152.43C844.9,-153.64 861.71,-154.93 877.9,-156.17"/>
<polygon fill="#757575" stroke="#757575" points="877.65,-159.66 887.88,-156.94 878.18,-152.68 877.65,-159.66"/>
</g>
<!-- ads/dom&#45;monitor.js -->
<g id="node12" class="node">
<title>ads/dom&#45;monitor.js</title>
<path fill="none" stroke="#c6c5fe" d="M1234.83,-374.24C1234.83,-374.24 1117.17,-374.24 1117.17,-374.24 1113.33,-374.24 1109.5,-370.41 1109.5,-366.57 1109.5,-366.57 1109.5,-358.91 1109.5,-358.91 1109.5,-355.07 1113.33,-351.24 1117.17,-351.24 1117.17,-351.24 1234.83,-351.24 1234.83,-351.24 1238.67,-351.24 1242.5,-355.07 1242.5,-358.91 1242.5,-358.91 1242.5,-366.57 1242.5,-366.57 1242.5,-370.41 1238.67,-374.24 1234.83,-374.24"/>
<text text-anchor="middle" x="1176" y="-359.04" font-family="Arial" font-size="14.00" fill="#c6c5fe">ads/dom&#45;monitor.js</text>
</g>
<!-- ads/dom&#45;monitor.js&#45;&gt;util/log.js -->
<g id="edge13" class="edge">
<title>ads/dom&#45;monitor.js&#45;&gt;util/log.js</title>
<path fill="none" stroke="#757575" d="M1242.91,-362.74C1254.64,-362.74 1266.6,-362.74 1277.53,-362.74"/>
<polygon fill="#757575" stroke="#757575" points="1277.66,-366.24 1287.66,-362.74 1277.66,-359.24 1277.66,-366.24"/>
</g>
<!-- crawler&#45;cli.js -->
<g id="node13" class="node">
<title>crawler&#45;cli.js</title>
<path fill="none" stroke="#c6c5fe" d="M127.83,-139.24C127.83,-139.24 52.17,-139.24 52.17,-139.24 48.33,-139.24 44.5,-135.41 44.5,-131.57 44.5,-131.57 44.5,-123.91 44.5,-123.91 44.5,-120.07 48.33,-116.24 52.17,-116.24 52.17,-116.24 127.83,-116.24 127.83,-116.24 131.67,-116.24 135.5,-120.07 135.5,-123.91 135.5,-123.91 135.5,-131.57 135.5,-131.57 135.5,-135.41 131.67,-139.24 127.83,-139.24"/>
<text text-anchor="middle" x="90" y="-124.04" font-family="Arial" font-size="14.00" fill="#c6c5fe">crawler&#45;cli.js</text>
</g>
<!-- crawler&#45;cli.js&#45;&gt;util/log.js -->
<g id="edge15" class="edge">
<title>crawler&#45;cli.js&#45;&gt;util/log.js</title>
<path fill="none" stroke="#757575" d="M106.97,-116.11C149.73,-86.17 271.29,-8.74 385,-8.74 385,-8.74 385,-8.74 965.5,-8.74 1094.84,-8.74 1158.32,29.43 1252,-59.74 1293.12,-98.88 1313.59,-278.3 1319.58,-341.02"/>
<polygon fill="#757575" stroke="#757575" points="1316.1,-341.37 1320.51,-351 1323.07,-340.72 1316.1,-341.37"/>
</g>
<!-- crawler.js -->
<g id="node14" class="node">
<title>crawler.js</title>
<path fill="none" stroke="#c6c5fe" d="M282.33,-274.24C282.33,-274.24 223.67,-274.24 223.67,-274.24 219.83,-274.24 216,-270.41 216,-266.57 216,-266.57 216,-258.91 216,-258.91 216,-255.07 219.83,-251.24 223.67,-251.24 223.67,-251.24 282.33,-251.24 282.33,-251.24 286.17,-251.24 290,-255.07 290,-258.91 290,-258.91 290,-266.57 290,-266.57 290,-270.41 286.17,-274.24 282.33,-274.24"/>
<text text-anchor="middle" x="253" y="-259.04" font-family="Arial" font-size="14.00" fill="#c6c5fe">crawler.js</text>
</g>
<!-- crawler&#45;cli.js&#45;&gt;crawler.js -->
<g id="edge14" class="edge">
<title>crawler&#45;cli.js&#45;&gt;crawler.js</title>
<path fill="none" stroke="#757575" d="M135.93,-130.86C151,-133.64 167.21,-138.68 180,-147.74 213.26,-171.3 234.45,-215.55 244.69,-241.76"/>
<polygon fill="#757575" stroke="#757575" points="241.42,-243 248.2,-251.15 247.98,-240.56 241.42,-243"/>
</g>
<!-- crawler.js&#45;&gt;ads/ad&#45;scraper.js -->
<g id="edge16" class="edge">
<title>crawler.js&#45;&gt;ads/ad&#45;scraper.js</title>
<path fill="none" stroke="#757575" d="M273.33,-274.25C295.39,-287.38 331.66,-308.98 356.86,-323.98"/>
<polygon fill="#757575" stroke="#757575" points="355.21,-327.08 365.59,-329.18 358.79,-321.06 355.21,-327.08"/>
</g>
<!-- crawler.js&#45;&gt;util/db.js -->
<g id="edge19" class="edge">
<title>crawler.js&#45;&gt;util/db.js</title>
<path fill="none" stroke="#757575" d="M260.9,-250.99C272.42,-232.13 297.2,-194.79 326,-170.74 416.8,-94.93 443.21,-46.74 561.5,-46.74 561.5,-46.74 561.5,-46.74 755,-46.74 898.68,-46.74 942.53,-65.01 1064,-141.74 1106.47,-168.57 1143.07,-215.8 1161.75,-242.63"/>
<polygon fill="#757575" stroke="#757575" points="1159.07,-244.91 1167.6,-251.2 1164.86,-240.97 1159.07,-244.91"/>
</g>
<!-- crawler.js&#45;&gt;util/log.js -->
<g id="edge20" class="edge">
<title>crawler.js&#45;&gt;util/log.js</title>
<path fill="none" stroke="#757575" d="M256.49,-274.6C263.3,-304.77 284.5,-385.86 326,-439.74 405.89,-543.47 430.57,-616.74 561.5,-616.74 561.5,-616.74 561.5,-616.74 965.5,-616.74 1093.11,-616.74 1152.35,-677.46 1252,-597.74 1285.89,-570.63 1309.9,-437.51 1318.26,-384.54"/>
<polygon fill="#757575" stroke="#757575" points="1321.74,-384.94 1319.8,-374.52 1314.82,-383.87 1321.74,-384.94"/>
</g>
<!-- crawler.js&#45;&gt;util/timeout.js -->
<g id="edge21" class="edge">
<title>crawler.js&#45;&gt;util/timeout.js</title>
<path fill="none" stroke="#757575" d="M290.16,-265.8C405.45,-275.55 765.04,-305.96 906,-317.88"/>
<polygon fill="#757575" stroke="#757575" points="905.9,-321.38 916.16,-318.74 906.49,-314.41 905.9,-321.38"/>
</g>
<!-- crawler.js&#45;&gt;pages/page&#45;scraper.js -->
<g id="edge18" class="edge">
<title>crawler.js&#45;&gt;pages/page&#45;scraper.js</title>
<path fill="none" stroke="#757575" d="M274.22,-251.08C313.01,-229.36 401.23,-183.18 482,-163.74 543.36,-148.98 614.65,-145 668.71,-144.58"/>
<polygon fill="#757575" stroke="#757575" points="668.95,-148.07 678.94,-144.53 668.93,-141.07 668.95,-148.07"/>
</g>
<!-- pages/find&#45;page.js -->
<g id="node15" class="node">
<title>pages/find&#45;page.js</title>
<path fill="none" stroke="#c6c5fe" d="M809.83,-549.24C809.83,-549.24 698.17,-549.24 698.17,-549.24 694.33,-549.24 690.5,-545.41 690.5,-541.57 690.5,-541.57 690.5,-533.91 690.5,-533.91 690.5,-530.07 694.33,-526.24 698.17,-526.24 698.17,-526.24 809.83,-526.24 809.83,-526.24 813.67,-526.24 817.5,-530.07 817.5,-533.91 817.5,-533.91 817.5,-541.57 817.5,-541.57 817.5,-545.41 813.67,-549.24 809.83,-549.24"/>
<text text-anchor="middle" x="754" y="-534.04" font-family="Arial" font-size="14.00" fill="#c6c5fe">pages/find&#45;page.js</text>
</g>
<!-- crawler.js&#45;&gt;pages/find&#45;page.js -->
<g id="edge17" class="edge">
<title>crawler.js&#45;&gt;pages/find&#45;page.js</title>
<path fill="none" stroke="#757575" d="M260.56,-274.33C284.16,-314.71 369.33,-449.59 482,-501.74 544.65,-530.74 623.59,-538.41 680.08,-539.62"/>
<polygon fill="#757575" stroke="#757575" points="680.31,-543.13 690.36,-539.78 680.41,-536.13 680.31,-543.13"/>
</g>
<!-- pages/find&#45;page.js&#45;&gt;ads/ad&#45;detection.js -->
<g id="edge22" class="edge">
<title>pages/find&#45;page.js&#45;&gt;ads/ad&#45;detection.js</title>
<path fill="none" stroke="#757575" d="M816.71,-526.2C840.35,-521.78 867.52,-516.7 892,-512.12"/>
<polygon fill="#757575" stroke="#757575" points="892.76,-515.53 901.95,-510.25 891.47,-508.65 892.76,-515.53"/>
</g>
<!-- pages/find&#45;page.js&#45;&gt;util/log.js -->
<g id="edge24" class="edge">
<title>pages/find&#45;page.js&#45;&gt;util/log.js</title>
<path fill="none" stroke="#757575" d="M817.66,-536.82C935.39,-533.94 1183.87,-522.02 1252,-472.74 1283.21,-450.17 1303.68,-408.87 1313.87,-383.8"/>
<polygon fill="#757575" stroke="#757575" points="1317.14,-385.04 1317.49,-374.45 1310.61,-382.51 1317.14,-385.04"/>
</g>
<!-- pages/find&#45;page.js&#45;&gt;util/timeout.js -->
<g id="edge25" class="edge">
<title>pages/find&#45;page.js&#45;&gt;util/timeout.js</title>
<path fill="none" stroke="#757575" d="M766.21,-526.18C800.29,-491.04 902.91,-385.22 945.09,-341.72"/>
<polygon fill="#757575" stroke="#757575" points="947.79,-343.97 952.23,-334.36 942.76,-339.1 947.79,-343.97"/>
</g>
<!-- pages/get&#45;rss&#45;article.js -->
<g id="node16" class="node">
<title>pages/get&#45;rss&#45;article.js</title>
<path fill="none" stroke="#c6c5fe" d="M1244.33,-588.24C1244.33,-588.24 1107.67,-588.24 1107.67,-588.24 1103.83,-588.24 1100,-584.41 1100,-580.57 1100,-580.57 1100,-572.91 1100,-572.91 1100,-569.07 1103.83,-565.24 1107.67,-565.24 1107.67,-565.24 1244.33,-565.24 1244.33,-565.24 1248.17,-565.24 1252,-569.07 1252,-572.91 1252,-572.91 1252,-580.57 1252,-580.57 1252,-584.41 1248.17,-588.24 1244.33,-588.24"/>
<text text-anchor="middle" x="1176" y="-573.04" font-family="Arial" font-size="14.00" fill="#c6c5fe">pages/get&#45;rss&#45;article.js</text>
</g>
<!-- pages/find&#45;page.js&#45;&gt;pages/get&#45;rss&#45;article.js -->
<g id="edge23" class="edge">
<title>pages/find&#45;page.js&#45;&gt;pages/get&#45;rss&#45;article.js</title>
<path fill="none" stroke="#757575" d="M817.75,-546.94C833.18,-549.02 849.67,-551.1 865,-552.74 940.76,-560.83 1027.21,-567.3 1089.54,-571.47"/>
<polygon fill="#757575" stroke="#757575" points="1089.51,-574.97 1099.72,-572.14 1089.97,-567.99 1089.51,-574.97"/>
</g>
<!-- pages/get&#45;rss&#45;article.js&#45;&gt;util/log.js -->
<g id="edge26" class="edge">
<title>pages/get&#45;rss&#45;article.js&#45;&gt;util/log.js</title>
<path fill="none" stroke="#757575" d="M1229.65,-565.22C1237.86,-561.63 1245.7,-556.91 1252,-550.74 1299.28,-504.42 1314.67,-423.13 1319.46,-384.42"/>
<polygon fill="#757575" stroke="#757575" points="1322.96,-384.6 1320.59,-374.28 1316,-383.83 1322.96,-384.6"/>
</g>
<!-- test.js -->
<g id="node18" class="node">
<title>test.js</title>
<path fill="none" stroke="#cfffac" d="M109.33,-221.24C109.33,-221.24 70.67,-221.24 70.67,-221.24 66.83,-221.24 63,-217.41 63,-213.57 63,-213.57 63,-205.91 63,-205.91 63,-202.07 66.83,-198.24 70.67,-198.24 70.67,-198.24 109.33,-198.24 109.33,-198.24 113.17,-198.24 117,-202.07 117,-205.91 117,-205.91 117,-213.57 117,-213.57 117,-217.41 113.17,-221.24 109.33,-221.24"/>
<text text-anchor="middle" x="90" y="-206.04" font-family="Arial" font-size="14.00" fill="#cfffac">test.js</text>
</g>
<!-- util/AsyncBlockingQueue.js -->
<g id="node19" class="node">
<title>util/AsyncBlockingQueue.js</title>
<path fill="none" stroke="#cfffac" d="M172.33,-262.24C172.33,-262.24 7.67,-262.24 7.67,-262.24 3.83,-262.24 0,-258.41 0,-254.57 0,-254.57 0,-246.91 0,-246.91 0,-243.07 3.83,-239.24 7.67,-239.24 7.67,-239.24 172.33,-239.24 172.33,-239.24 176.17,-239.24 180,-243.07 180,-246.91 180,-246.91 180,-254.57 180,-254.57 180,-258.41 176.17,-262.24 172.33,-262.24"/>
<text text-anchor="middle" x="90" y="-247.04" font-family="Arial" font-size="14.00" fill="#cfffac">util/AsyncBlockingQueue.js</text>
</g>
</g>
</svg>
